<svg width="1440" height="1313" viewBox="0 0 1440 1313" fill="none" xmlns="http://www.w3.org/2000/svg">
<path d="M151.902 625.536C254.837 512.043 658.167 364.319 704.232 345.404C933.987 251.064 1001.77 -221 1001.77 -221L1145.76 -207.774L1493.02 -147.531C1539.91 9.88977 1495.44 349.139 1482.17 345.404C1468.9 341.67 1247.5 377 1148.5 567.5C1148.5 567.5 924.214 1116.48 641 1253C599.337 1263.91 254.073 1390.27 57 1237C-165.147 1064.23 130.387 649.258 151.902 625.536Z" fill="#FFD966" stroke="#DE8C8C"/>
<path d="M374 571.5C510 517 819.541 408.887 852.5 390.5C1016.89 298.791 1218 -188 1218 -188L1006.52 -272.142L1356.99 -242.58C1390.54 -89.5493 1748 197.63 1738.5 194C1729 190.37 1125.44 310.846 1046.5 483C1061.15 453.686 866.495 966.98 663.857 1099.69C634.047 1110.29 322.505 1186.5 181.5 1037.5C22.5552 869.546 348.263 581.814 374 571.5Z" fill="#FFA1BD"/>
</svg>
