<svg width="1231" height="1197" viewBox="0 0 1231 1197" fill="none" xmlns="http://www.w3.org/2000/svg">
<path d="M177.208 998.989C280.143 885.496 683.472 737.772 729.537 718.858C959.293 624.518 825 325.453 1129 90.9534C1433 -143.547 1395.5 149.453 1395.5 149.453L1518.33 225.922C1565.22 383.343 1520.75 722.592 1507.48 718.858C1494.21 715.123 1272.81 750.453 1173.81 940.953C1173.81 940.953 949.519 1489.93 666.305 1626.45C624.642 1637.36 279.378 1763.72 82.3053 1610.45C-139.841 1437.68 155.693 1022.71 177.208 998.989Z" fill="#FFA1BD"/>
<path d="M498.394 941C572.822 843.446 872.087 739.758 905.395 723.5C1071.52 642.409 937.914 342.746 1157.72 141.18C1377.53 -60.3866 1350.42 191.464 1350.42 191.464L1439.23 257.193C1473.13 392.505 1440.98 684.109 1431.38 680.899C1421.79 677.689 1163.48 692.754 1091.89 856.5C1091.89 856.5 927.673 1349.15 722.895 1466.5C692.77 1475.87 324.389 1561.25 181.895 1429.5C21.2706 1280.99 482.838 961.39 498.394 941Z" fill="#FFD966"/>
</svg>
