<svg width="787" height="817" viewBox="0 0 787 817" fill="none" xmlns="http://www.w3.org/2000/svg">
<g filter="url(#filter0_d)">
<path d="M590 129C926 -131 -59 83.031 -59 83.031L-183 421.031C-137 645.031 -112 809 -112 809C-46 699 59.2 706.6 440 593C820.8 479.4 626 485 776 361C852 209 254 389 590 129Z" fill="#FFA1BD"/>
</g>
<path d="M470 141C713.542 -31.9459 -51.1216 194.102 -51.1216 194.102L-141 418.932C-107.658 567.932 -89.5374 677 -89.5374 677C-41.6989 603.83 -51.1216 677 310.566 533.322C576.521 427.673 531.276 517.482 640 435C695.087 333.893 226.458 313.946 470 141Z" fill="#FFD966"/>
<defs>
<filter id="filter0_d" x="-187" y="0.192017" width="973.749" height="816.808" filterUnits="userSpaceOnUse" color-interpolation-filters="sRGB">
<feFlood flood-opacity="0" result="BackgroundImageFix"/>
<feColorMatrix in="SourceAlpha" type="matrix" values="0 0 0 0 0 0 0 0 0 0 0 0 0 0 0 0 0 0 127 0"/>
<feOffset dy="4"/>
<feGaussianBlur stdDeviation="2"/>
<feColorMatrix type="matrix" values="0 0 0 0 0 0 0 0 0 0 0 0 0 0 0 0 0 0 0.25 0"/>
<feBlend mode="normal" in2="BackgroundImageFix" result="effect1_dropShadow"/>
<feBlend mode="normal" in="SourceGraphic" in2="effect1_dropShadow" result="shape"/>
</filter>
</defs>
</svg>
